<svg width="33" height="32" viewBox="0 0 33 32" fill="none" xmlns="http://www.w3.org/2000/svg">
<path d="M19.3108 4C19.0347 4 18.8108 4.22386 18.8108 4.5V6.16667C18.8108 6.44281 19.0347 6.66667 19.3108 6.66667H23.5975L12.1777 18.0864C11.9824 18.2817 11.9824 18.5983 12.1777 18.7936L13.3506 19.9664C13.5459 20.1617 13.8624 20.1617 14.0577 19.9664L25.4775 8.54667V12.8333C25.4775 13.1095 25.7013 13.3333 25.9775 13.3333H27.6441C27.9203 13.3333 28.1441 13.1095 28.1441 12.8333V4.5C28.1441 4.22386 27.9203 4 27.6441 4H19.3108ZM24.1441 24H8.14414V8H12.9775C13.2536 8 13.4775 7.77614 13.4775 7.5V5.83333C13.4775 5.55719 13.2536 5.33333 12.9775 5.33333H6.47748C5.92519 5.33333 5.47748 5.78105 5.47748 6.33333V25.6667C5.47748 26.2189 5.92519 26.6667 6.47748 26.6667H25.8108C26.3631 26.6667 26.8108 26.219 26.8108 25.6667V19.1667C26.8108 18.8905 26.587 18.6667 26.3108 18.6667H24.6441C24.368 18.6667 24.1441 18.8905 24.1441 19.1667V24Z" fill="white" fill-opacity="0.95"/>
</svg>
